<svg xmlns="http://www.w3.org/2000/svg" xmlns:v="https://vecta.io/nano" viewBox="0 0 1000 200"><path d="M199.72 190.8l.88 9h-49.9q0-33.42-19.22-52.65-14-14-36.17-19.46c-9.14-1.84-15.64-2.7-19.46-2.7H50.9v74.8H1V75.05h74.85q33.44 0 52.64-19.2 14-14 19.46-36.18.5-5 1.26-9.73.75-4.73 1.5-9.73h49.9a151.6 151.6 0 0 0-.75 9 138.29 138.29 0 0 1-.74 8.72 176.34 176.34 0 0 1-4.62 20.58 150.13 150.13 0 0 1-7.11 19.34q-11.73 26-31.94 42.18 20 16.2 31.7 41.9a150.68 150.68 0 0 1 7.11 19.34 172.36 172.36 0 0 1 4.61 20.58q.5 4.48.87 8.96z" fill="#fff"></path><path d="M50.9.2v49.9H1L25.95.2H50.9z" fill="#e32d23"></path><path d="M225.55 50.1L250.5.2h74.85q11 0 25.95 3.74 29.68 7.5 48.15 26 25.7 25.7 25.7 70.1v99.8h-49.9V100Q373 81.8 369 75.05 356.8 50.1 325.35 50.1zm0 24.95h99.8a49.89 49.89 0 0 1 7.36 1.37 30.78 30.78 0 0 1 5.12 1.87q12.46 6.5 12.47 21.7v25h-74.85v74.8h-49.9zM699.6.2V100q0 44.42-25.7 70.1-18.46 18.46-48.15 25.95-15 3.74-26 3.74H549.9q-44.42 0-70.1-25.7-18.46-18.47-26-48.15-1-6.5-1.87-13-.87-6.5-1.87-13v-25H500v25q0 31.44 25 43.66 6.74 4 24.95 6.24h49.9q31.44 0 43.66-25 4-6.74 6.24-25V.2zM500 50.1V.2h-24.95L450.1 50.1zM599.8.2V125h-49.9V.2zm124.75 49.9L749.5.2h74.85q11 0 25.95 3.74 29.7 7.5 48.15 26 25.7 25.7 25.7 70.1v99.8h-49.9V100Q872 81.8 868 75.05 855.8 50.1 824.35 50.1zm0 24.95h99.8a49.89 49.89 0 0 1 7.36 1.37 30.78 30.78 0 0 1 5.12 1.87q12.47 6.5 12.47 21.7v25h-74.85v74.8h-49.9zM999 .2v49.9h-49.9L974.05.2zm-49.9 199.6H999V75.05h-49.9z" fill="#fff"></path></svg>